HIERARCHY
ROOT Hips
{
	OFFSET 0.000000 0.000000 0.000000 
	CHANNELS 6 Xposition Yposition Zposition Yrotation Zrotation Xrotation 
	JOINT Lumbar
	{
		OFFSET 0.000000 0.000000 0.000000 
		CHANNELS 3 Zrotation Xrotation Yrotation
		JOINT Neck
		{
			OFFSET 0.000000 0.445665 0.000000 
			CHANNELS 3 Zrotation Xrotation Yrotation
			End Site
			{
				OFFSET 0.000000 0.227535 0.000000 
			}
		}
		JOINT RightShoulder
		{
			OFFSET 0.019635 0.377685 0.194865 
			CHANNELS 3 Zrotation Xrotation Yrotation
			JOINT RightElbow
			{
				OFFSET 0.000000 -0.243375 0.000000 
				CHANNELS 2 Zrotation Yrotation
				JOINT RightWrist
				{
					OFFSET 0.000000 -0.264825 0.000000 
					CHANNELS 2 Zrotation Xrotation
					End Site
					{
						OFFSET 0.006600 -0.176220 0.000990 
					}
				}
			}
		}
		JOINT LeftShoulder
		{
			OFFSET 0.019635 0.377685 -0.194865 
			CHANNELS 3 Zrotation Xrotation Yrotation
			JOINT LeftElbow
			{
				OFFSET 0.000000 -0.243375 0.000000 
				CHANNELS 2 Zrotation Yrotation
				JOINT LeftWrist
				{
					OFFSET 0.000000 -0.264825 0.000000 
					CHANNELS 2 Zrotation Xrotation
					End Site
					{
						OFFSET 0.006600 -0.176220 -0.000990 
					}
				}
			}
		}
	}
	JOINT RightHip
	{
		OFFSET 0.052140 -0.069960 0.075570 
		CHANNELS 3 Zrotation Xrotation Yrotation
		JOINT RightKnee
		{
			OFFSET 0.000000 -0.402270 0.000000 
			CHANNELS 1 Zrotation
			JOINT RightAnkle
			{
				OFFSET 0.000000 -0.404085 0.000000 
				CHANNELS 3 Zrotation Xrotation Yrotation
				End Site
				{
					OFFSET 0.204105 -0.089430 0.008415 
				}
			}
		}
	}
	JOINT LeftHip
	{
		OFFSET 0.052140 -0.069960 -0.075570 
		CHANNELS 3 Zrotation Xrotation Yrotation
		JOINT LeftKnee
		{
			OFFSET 0.000000 -0.402270 0.000000 
			CHANNELS 1 Zrotation
			JOINT LeftAnkle
			{
				OFFSET 0.000000 -0.404085 0.000000 
				CHANNELS 3 Zrotation Xrotation Yrotation
				End Site
				{
					OFFSET 0.204105 -0.089430 -0.008415 
				}
			}
		}
	}
}
MOTION
Frames: 16
Frame Time: 0.02
0.05186 -0.03842 -0.71525 328.92091 -41.50026 -3.01719 47.17311 0.92312 7.37798 3.32679 2.58781 -0.83079 15.73725 -50.99874 43.93356 94.35295 70.13081 12.32536 -6.28715 -23.8346 9.96636 -2.5967 29.54284 -101.10801 13.75822 -0.66467 35.05641 -7.03513 -4.09082 -26.08258 -7.13734 -0.41494 -0.81126 70.75829 1.03795 3.81703 -27.46855 -11.0178 3.29744 2.53111
0.07214 -0.03658 -0.71218 328.99967 -41.56524 -2.68214 47.72392 0.67632 7.28805 3.2185 2.39506 -0.83079 14.39244 -51.17811 43.04351 94.84721 68.27738 12.89568 -6.5633 -23.09887 10.59028 -2.40466 29.06229 -100.92226 13.99484 -0.57409 34.54327 -7.66025 -3.13888 -26.63327 -7.46804 -0.34814 -0.78546 69.77759 0.39417 4.25972 -27.80012 -10.75131 3.31734 2.53749
0.09264 -0.03422 -0.70887 329.20567 -41.57887 -2.33584 48.29101 0.40831 7.12735 3.03031 2.23605 -0.83079 13.00838 -51.45863 42.27753 95.34566 64.85333 13.77147 -7.11613 -22.33084 11.22128 -2.13777 28.60919 -100.56169 14.29379 -0.42509 34.14437 -8.24327 -2.02818 -27.41066 -7.88006 -0.27228 -0.75718 68.5739 -0.24037 4.93601 -27.9815 -10.35662 3.36735 2.55951
0.11296 -0.03213 -0.7057 329.35339 -41.60806 -1.99958 48.8395 0.15304 6.98793 2.88071 2.0608 -0.83079 11.65403 -51.67624 41.44901 95.83378 62.34182 14.46628 -7.50951 -21.57095 11.84623 -1.91771 28.14495 -100.24219 14.53906 -0.29923 33.73676 -8.83522 -0.98553 -28.14687 -8.26661 -0.19957 -0.7297 67.45573 -0.86876 5.52809 -28.21598 -10.02565 3.39684 2.57036
0.13369 -0.0299 -0.7024 329.50656 -41.67186 -1.63845 49.4414 -0.11658 6.89555 2.71947 1.88756 -0.83079 10.23497 -51.96456 40.63089 96.36063 59.05014 15.32941 -8.03525 -20.83595 12.48561 -1.63685 27.66701 -100.07919 14.88816 -0.18761 33.14567 -9.47162 0.05907 -28.62412 -8.61001 -0.13104 -0.70378 66.39911 -1.54469 6.03779 -28.52371 -9.67447 3.45357 2.59748
0.15358 -0.02783 -0.69931 329.67814 -41.65104 -1.32874 49.9325 -0.36091 6.68617 2.56508 1.71938 -0.83079 8.9511 -52.13065 39.83049 96.80552 56.9757 15.92013 -8.35703 -20.04167 13.09552 -1.46904 27.22839 -99.56334 15.03936 -0.03497 32.96628 -10.00473 1.12373 -29.69116 -9.05601 -0.05251 -0.67434 65.16443 -2.11863 6.76213 -28.63971 -9.33433 3.46218 2.59527
0.17133 -0.0263 -0.69686 329.85838 -41.40482 -1.15486 50.12654 -0.52941 6.19354 2.43936 1.55032 -0.83079 7.99863 -51.92605 38.99941 97.03676 58.79765 15.65966 -8.02033 -19.10167 13.62372 -1.61279 26.87801 -97.95544 14.59893 0.24818 33.87103 -10.26475 2.28058 -32.35875 -9.8217 0.06228 -0.63123 63.47946 -2.40367 8.12823 -28.26197 -9.05013 3.32004 2.50189
0.18819 -0.02496 -0.69463 330.05414 -41.07587 -1.03529 50.20541 -0.67156 5.58198 2.32528 1.3866 -0.83079 7.19406 -51.59681 38.1921 97.1829 61.86489 15.11991 -7.47488 -18.10182 14.12115 -1.87759 26.57018 -96.0232 13.96222 0.5659 35.19023 -10.42152 3.43583 -35.6034 -10.67738 0.1848 -0.58554 61.62634 -2.58706 9.68334 -27.69545 -8.78211 3.13036 2.3796
0.20534 -0.02354 -0.69227 330.24945 -40.78707 -0.89716 50.32782 -0.82628 5.00965 2.21244 1.22487 -0.83079 6.3576 -51.32982 37.40849 97.35828 64.25575 14.72518 -7.04431 -17.12328 14.63179 -2.0995 26.25221 -94.34849 13.43588 0.84644 36.33626 -10.62452 4.54107 -38.57064 -11.45488 0.29703 -0.54383 59.85901 -2.82314 11.08095 -27.21454 -8.51006 2.96957 2.27484
0.22299 -0.02206 -0.69 330.42158 -40.48501 -0.73263 50.48798 -0.97975 4.49555 2.0692 1.04554 -0.83079 5.37261 -51.04153 36.48565 97.57216 67.05615 14.26527 -6.5393 -16.16826 15.14715 -2.26568 25.89449 -92.21925 12.82497 1.21621 37.42385 -10.83002 5.86819 -41.62482 -12.39238 0.43885 -0.48979 58.04295 -3.03339 12.78502 -26.72878 -8.21951 2.77956 2.15235
0.23937 -0.02075 -0.68761 330.64378 -40.1925 -0.63628 50.54199 -1.12865 3.83515 1.99314 0.90386 -0.83079 4.72999 -50.76812 35.85401 97.68746 69.32305 13.86997 -6.13554 -15.15064 15.64385 -2.58001 25.63156 -90.94142 12.33949 1.41185 38.72802 -11.00506 6.72826 -44.61315 -13.01725 0.51989 -0.46133 56.29299 -3.27112 13.89764 -26.2109 -7.97305 2.6381 2.05937
0.25253 -0.01986 -0.68487 331.00154 -39.93903 -0.71364 50.33014 -1.27681 2.78105 2.09985 0.86337 -0.83079 5.02019 -50.55383 36.04519 97.53551 69.78746 13.72775 -6.06712 -13.97453 16.1079 -3.2538 25.60149 -92.27646 12.27763 1.08033 40.54567 -11.13172 6.31986 -47.43539 -12.75452 0.43871 -0.50022 54.75451 -3.62917 13.28602 -25.64501 -7.84431 2.64784 2.05801
0.26442 -0.01912 -0.682 331.40829 -39.69985 -0.85777 50.0156 -1.4202 1.58813 2.27419 0.8607 -0.83079 5.64554 -50.36086 36.52332 97.2905 69.68415 13.6576 -6.10559 -12.73834 16.55159 -4.07611 25.66885 -94.45015 12.34394 0.57838 42.5628 -11.22914 5.43812 -50.13852 -12.17479 0.29474 -0.56569 53.29201 -4.01494 12.07984 -25.05512 -7.76005 2.70696 2.08671
0.27684 -0.01832 -0.67918 331.79127 -39.45913 -0.97256 49.74847 -1.56201 0.47091 2.41789 0.8415 -0.83079 6.10236 -50.16548 36.85358 97.09812 69.86492 13.54866 -6.09063 -11.52923 16.99776 -4.84458 25.70338 -96.11619 12.33092 0.17998 44.47758 -11.33386 4.75686 -52.79529 -11.74038 0.17448 -0.62161 51.80353 -4.37497 11.1741 -24.48046 -7.6561 2.73965 2.09951
0.28941 -0.0175 -0.6764 332.18129 -39.19391 -1.08609 49.47384 -1.71847 -0.70554 2.56147 0.8197 -0.83079 6.63331 -49.93413 37.25903 96.85797 69.97885 13.45526 -6.08892 -10.31641 17.47352 -5.56166 25.69036 -98.28919 12.39632 -0.3242 46.45815 -11.46196 4.13181 -55.9068 -11.30095 0.07455 -0.66678 50.27191 -4.78612 10.14751 -23.88063 -7.55034 2.78734 2.12066
0.30138 -0.01676 -0.67349 332.56797 -38.98506 -1.21605 49.19241 -1.84394 -1.78782 2.7213 0.81225 -0.83079 7.0869 -49.78559 37.575 96.6978 70.08016 13.35071 -6.08787 -9.10103 17.88064 -6.41685 25.79988 -99.62944 12.33614 -0.65293 48.34126 -11.53359 3.2843 -58.02252 -10.79915 -0.08235 -0.74065 48.85169 -5.0997 9.22883 -23.33029 -7.45879 2.81638 2.13205
